<svg fill="#000000" xmlns="http://www.w3.org/2000/svg"  viewBox="0 0 100 100" width="200px" height="200px"><path d="M 31 17 C 23.27961 17 17 23.27961 17 31 L 17 69 C 17 76.72039 23.27961 83 31 83 L 69 83 C 76.72039 83 83 76.72039 83 69 L 83 31 C 83 23.27961 76.72039 17 69 17 L 31 17 z M 31 19 L 69 19 C 75.63961 19 81 24.36039 81 31 L 81 69 C 81 75.63961 75.63961 81 69 81 L 31 81 C 24.36039 81 19 75.63961 19 69 L 19 31 C 19 24.36039 24.36039 19 31 19 z M 32.5 22 C 26.706797 22 22 26.706797 22 32.5 L 22 67.5 C 22 73.293203 26.706797 78 32.5 78 L 67.5 78 C 73.293203 78 78 73.293203 78 67.5 L 78 48.5 A 0.50005 0.50005 0 1 0 77 48.5 L 77 67.5 C 77 72.752797 72.752797 77 67.5 77 L 32.5 77 C 27.247203 77 23 72.752797 23 67.5 L 23 32.5 C 23 27.247203 27.247203 23 32.5 23 L 66.5 23 A 0.50005 0.50005 0 1 0 66.5 22 L 32.5 22 z M 46.730469 30.001953 C 45.911469 30.001953 45.429188 30.402859 45.367188 31.130859 C 45.327188 31.869859 45.756797 32.298109 46.341797 32.412109 C 46.566797 32.452109 46.802344 32.452109 47.027344 32.412109 C 47.561344 32.330109 47.961953 31.898234 48.001953 31.365234 C 48.052953 30.740234 47.765891 30.259219 47.212891 30.074219 C 47.058891 30.023219 46.894469 29.991953 46.730469 30.001953 z M 34.587891 33.435547 C 33.783516 33.432969 33.038703 33.700344 32.345703 34.214844 C 32.284703 34.275844 32.212859 34.329141 32.130859 34.369141 C 32.109859 34.359141 32.091797 34.347891 32.091797 34.337891 C 32.060797 34.234891 32.040766 34.13425 32.009766 34.03125 C 31.927766 33.77525 31.824828 33.681641 31.548828 33.681641 C 31.240828 33.681641 30.922234 33.691641 30.615234 33.681641 C 30.379234 33.670641 30.164 33.702719 30 33.886719 C 30 37.475719 30.000719 41.073344 30.011719 44.652344 C 30.143719 44.867344 30.349937 44.908437 30.585938 44.898438 C 30.953937 44.888438 31.322406 44.898438 31.691406 44.898438 C 32.337406 44.898437 32.337891 44.899672 32.337891 44.263672 L 32.337891 41.341797 C 32.337891 41.269797 32.306906 41.187953 32.378906 41.126953 C 32.892906 41.526953 33.516109 41.771031 34.162109 41.832031 C 35.065109 41.925031 35.884266 41.699984 36.572266 41.083984 C 37.075266 40.622984 37.445625 40.028094 37.640625 39.371094 C 37.914625 38.534094 37.933328 37.682313 37.861328 36.820312 C 37.821328 36.288313 37.677891 35.76325 37.462891 35.28125 C 37.041891 34.39925 36.395109 33.754297 35.412109 33.529297 C 35.130109 33.467547 34.856016 33.436406 34.587891 33.435547 z M 54.669922 33.441406 C 54.413672 33.441406 54.156891 33.466078 53.900391 33.517578 C 53.233391 33.639578 52.640172 33.936156 52.076172 34.285156 C 52.004172 34.326156 51.942844 34.398438 51.839844 34.398438 C 51.788844 34.245438 51.758031 34.11175 51.707031 33.96875 C 51.644031 33.79575 51.532656 33.681641 51.347656 33.681641 L 50.064453 33.681641 C 49.942453 33.681641 49.819297 33.754953 49.779297 33.876953 C 49.758297 33.958953 49.748047 34.041047 49.748047 34.123047 L 49.748047 41.238281 C 49.748047 41.586281 49.839219 41.689453 50.199219 41.689453 L 51.572266 41.689453 C 51.951266 41.689453 52.033203 41.607516 52.033203 41.228516 L 52.033203 35.763672 C 52.013203 35.681672 52.064484 35.589359 52.146484 35.568359 C 52.701484 35.301359 53.326406 35.17875 53.941406 35.21875 C 54.290406 35.23875 54.588156 35.484984 54.660156 35.833984 C 54.701156 36.006984 54.710938 36.192188 54.710938 36.367188 L 54.710938 41.216797 C 54.710937 41.595797 54.792875 41.6875 55.171875 41.6875 L 56.257812 41.6875 C 56.422812 41.6875 56.576469 41.687734 56.730469 41.677734 C 56.874469 41.677734 56.986328 41.574641 56.986328 41.431641 C 57.007328 41.329641 57.007812 41.237766 57.007812 41.134766 L 57.007812 35.742188 C 56.996813 35.660187 57.048859 35.577641 57.130859 35.556641 C 57.684859 35.299641 58.290531 35.17875 58.894531 35.21875 C 59.222531 35.23975 59.509797 35.46325 59.591797 35.78125 C 59.642797 35.96625 59.662344 36.150703 59.652344 36.345703 L 59.652344 41.09375 C 59.652344 41.20775 59.652828 41.320594 59.673828 41.433594 C 59.694828 41.556594 59.797922 41.659922 59.919922 41.669922 C 60.001922 41.679922 60.082062 41.679688 60.164062 41.679688 L 61.414062 41.679688 C 61.875062 41.679688 61.9375 41.61725 61.9375 41.15625 L 61.9375 35.847656 C 61.9375 35.723656 61.937734 35.611047 61.927734 35.498047 C 61.886734 34.965047 61.742516 34.472266 61.353516 34.072266 C 60.943516 33.642266 60.409219 33.478266 59.824219 33.447266 C 59.013219 33.406266 58.214094 33.591938 57.496094 33.960938 C 57.218094 34.103938 56.954266 34.267875 56.697266 34.421875 C 56.687266 34.400875 56.676453 34.401625 56.689453 34.390625 C 56.668453 34.369625 56.649906 34.349359 56.628906 34.318359 C 56.352906 33.907359 55.921453 33.620578 55.439453 33.517578 C 55.182953 33.466078 54.926172 33.441406 54.669922 33.441406 z M 67.169922 33.490234 C 66.997844 33.492938 66.825797 33.506547 66.654297 33.529297 C 65.034297 33.714297 63.978094 34.607297 63.496094 36.154297 C 63.157094 37.210297 63.200562 38.286516 63.476562 39.353516 C 63.836563 40.717516 64.737562 41.528453 66.101562 41.814453 C 66.880562 41.989453 67.669219 41.957937 68.449219 41.835938 C 68.859219 41.764937 69.271156 41.661813 69.660156 41.507812 C 69.896156 41.414812 70.019766 41.270906 70.009766 41.003906 C 69.999766 40.757906 70.009766 40.501094 70.009766 40.246094 C 70.009766 39.939094 69.885891 39.845969 69.587891 39.917969 C 69.288891 39.988969 69.002078 40.050281 68.705078 40.113281 C 68.069078 40.246281 67.413344 40.246766 66.777344 40.134766 C 65.905344 39.959766 65.341578 39.211109 65.392578 38.287109 C 65.483578 38.297109 65.587687 38.306172 65.679688 38.326172 C 66.448688 38.469172 67.237813 38.479422 68.007812 38.357422 C 68.458812 38.296422 68.889062 38.162266 69.289062 37.947266 C 69.750062 37.680266 70.089422 37.311828 70.232422 36.798828 C 70.592422 35.506828 70.036359 34.204609 68.693359 33.724609 C 68.200609 33.564109 67.686156 33.482125 67.169922 33.490234 z M 44.167969 33.603516 C 43.500969 33.552516 42.833781 33.757969 42.300781 34.167969 C 42.094781 34.330969 41.901797 34.504453 41.716797 34.689453 C 41.674797 34.750453 41.613016 34.789547 41.541016 34.810547 C 41.482016 34.534547 41.420656 34.278391 41.347656 34.025391 C 41.275656 33.768391 41.153719 33.675781 40.886719 33.675781 L 39.902344 33.675781 C 39.430344 33.675781 39.380859 33.726266 39.380859 34.197266 L 39.380859 41.171875 C 39.380859 41.253875 39.380625 41.335969 39.390625 41.417969 C 39.400625 41.551969 39.503719 41.662828 39.636719 41.673828 C 39.708719 41.683828 39.790328 41.683594 39.861328 41.683594 L 41.195312 41.683594 C 41.267313 41.683594 41.348922 41.683828 41.419922 41.673828 C 41.552922 41.673828 41.656016 41.5705 41.666016 41.4375 C 41.676016 41.3445 41.675781 41.263875 41.675781 41.171875 L 41.675781 36.25 C 41.675781 36.137 41.675359 36.033422 41.818359 35.982422 C 42.464359 35.767422 43.132359 35.635266 43.818359 35.697266 C 43.961359 35.707266 44.095281 35.718031 44.238281 35.707031 C 44.422281 35.686031 44.495156 35.614688 44.535156 35.429688 C 44.556156 35.286687 44.566641 35.150812 44.556641 35.007812 C 44.556641 34.658813 44.566875 34.300172 44.546875 33.951172 C 44.527875 33.694172 44.434969 33.613516 44.167969 33.603516 z M 45.892578 33.671875 C 45.646578 33.681875 45.552969 33.775484 45.542969 34.021484 L 45.542969 37.660156 C 45.541969 38.831156 45.54125 39.999719 45.53125 41.136719 C 45.53125 41.218719 45.532969 41.300812 45.542969 41.382812 C 45.552969 41.527813 45.676312 41.638437 45.820312 41.648438 C 45.871313 41.658437 45.912891 41.658203 45.962891 41.658203 L 47.388672 41.658203 C 47.449672 41.658203 47.5005 41.658437 47.5625 41.648438 C 47.6955 41.638438 47.798594 41.545109 47.808594 41.412109 C 47.818594 41.299109 47.830078 41.188219 47.830078 41.074219 L 47.830078 34.246094 C 47.830078 34.153094 47.830313 34.070516 47.820312 33.978516 C 47.799312 33.742516 47.727187 33.671875 47.492188 33.671875 C 46.959187 33.661875 46.425578 33.661875 45.892578 33.671875 z M 67.228516 35.089844 C 67.413516 35.099844 67.596484 35.138937 67.771484 35.210938 C 68.039484 35.323937 68.211187 35.571422 68.242188 35.857422 C 68.274187 36.032422 68.264891 36.217625 68.212891 36.390625 C 68.090891 36.758625 67.791594 36.911375 67.433594 36.984375 C 67.218594 37.035375 66.992625 37.056156 66.765625 37.035156 C 66.365625 37.035156 65.956641 37.004359 65.556641 36.943359 C 65.402641 36.924359 65.402828 36.923766 65.423828 36.759766 C 65.454828 36.513766 65.524187 36.277734 65.617188 36.052734 C 65.924187 35.303734 66.571516 35.049844 67.228516 35.089844 z M 33.839844 35.173828 C 33.989984 35.175375 34.141172 35.190203 34.294922 35.220703 C 34.725922 35.282703 35.094531 35.560938 35.269531 35.960938 C 35.423531 36.288938 35.514156 36.645859 35.535156 37.005859 C 35.596156 37.660859 35.597063 38.318406 35.414062 38.941406 C 35.342062 39.259406 35.177406 39.545719 34.941406 39.761719 C 34.674406 39.987719 34.346047 40.121094 33.998047 40.121094 C 33.475047 40.153094 32.962953 40.040922 32.501953 39.794922 C 32.387953 39.744922 32.316172 39.629812 32.326172 39.507812 L 32.326172 37.652344 C 32.326172 37.037344 32.336172 36.421641 32.326172 35.806641 C 32.315172 35.663641 32.39825 35.539281 32.53125 35.488281 C 32.95425 35.288031 33.389422 35.169187 33.839844 35.173828 z M 77.492188 36.992188 A 0.50005 0.50005 0 0 0 77 37.5 L 77 39.5 A 0.50005 0.50005 0 1 0 78 39.5 L 78 37.5 A 0.50005 0.50005 0 0 0 77.492188 36.992188 z M 77.492188 40.992188 A 0.50005 0.50005 0 0 0 77 41.5 L 77 45.5 A 0.50005 0.50005 0 1 0 78 45.5 L 78 41.5 A 0.50005 0.50005 0 0 0 77.492188 40.992188 z M 40.4375 45.060547 C 40.3625 45.049547 40.283078 45.060266 40.205078 45.072266 C 39.556078 45.127266 39.084297 45.579547 39.029297 46.185547 C 38.963297 46.943547 39.314094 47.470719 39.996094 47.636719 C 40.117094 47.657719 40.238375 47.679688 40.359375 47.679688 C 41.250375 47.701687 41.921984 47.197313 41.833984 46.195312 C 41.812984 45.732312 41.515937 45.337875 41.085938 45.171875 C 40.876937 45.083875 40.6565 45.037547 40.4375 45.060547 z M 49.634766 45.136719 C 49.217766 45.136719 49.138672 45.214813 49.138672 45.632812 L 49.138672 49.197266 C 49.138672 49.274266 49.172187 49.349734 49.117188 49.427734 C 49.019187 49.416734 48.964719 49.349641 48.886719 49.306641 C 47.742719 48.635641 46.544031 48.515172 45.332031 49.076172 C 44.484031 49.472172 43.955234 50.187203 43.615234 51.033203 C 43.285234 51.848203 43.208469 52.706219 43.230469 53.574219 C 43.230469 54.389219 43.41725 55.192969 43.78125 55.917969 C 44.19925 56.720969 44.805547 57.337562 45.685547 57.601562 C 46.885547 57.976562 48.007297 57.787297 49.029297 57.029297 C 49.106297 56.986297 49.150047 56.908719 49.248047 56.886719 C 49.303047 57.007719 49.347141 57.140484 49.369141 57.271484 C 49.412141 57.447484 49.568859 57.568359 49.755859 57.568359 L 50.019531 57.568359 C 50.415531 57.568359 50.799547 57.578359 51.185547 57.568359 C 51.492547 57.568359 51.58175 57.469391 51.59375 57.150391 L 51.59375 45.556641 C 51.58275 45.214641 51.493109 45.137719 51.162109 45.136719 L 49.634766 45.136719 z M 66.445312 48.726562 C 66.094813 48.714188 65.742625 48.734562 65.390625 48.789062 C 63.906625 49.008062 62.838266 49.801938 62.322266 51.210938 C 61.816266 52.553937 61.826031 54.028141 62.332031 55.369141 C 62.772031 56.590141 63.652969 57.361688 64.917969 57.679688 C 65.588969 57.844688 66.294328 57.887062 66.986328 57.789062 C 69.295328 57.515062 70.25225 55.763094 70.40625 54.246094 C 70.40625 54.246094 70.462891 53.791031 70.462891 53.582031 L 70.451172 52.662109 C 70.461172 52.537109 70.417969 52.277578 70.417969 52.267578 C 70.394969 52.058578 70.351875 51.848391 70.296875 51.650391 C 69.889875 50.198391 68.977187 49.240187 67.492188 48.867188 C 67.145188 48.784188 66.795812 48.738937 66.445312 48.726562 z M 57.316406 48.822266 C 55.467406 48.866266 54.061281 49.801391 53.488281 51.650391 C 53.103281 52.871391 53.15825 54.114937 53.53125 55.335938 C 53.91625 56.590938 54.797781 57.349406 56.050781 57.691406 C 56.588781 57.823406 57.148219 57.878422 57.699219 57.857422 C 58.502219 57.846422 59.305453 57.69125 60.064453 57.40625 C 60.383453 57.28625 60.460938 57.175938 60.460938 56.835938 L 60.460938 56.042969 C 60.449938 55.723969 60.315094 55.613406 59.996094 55.691406 C 59.754094 55.757406 59.52325 55.812188 59.28125 55.867188 C 58.54425 56.043187 57.774391 56.076313 57.025391 55.945312 C 56.277391 55.801313 55.771219 55.372047 55.574219 54.623047 C 55.519219 54.404047 55.475125 54.184125 55.453125 53.953125 C 55.509125 53.953125 55.564422 53.952609 55.607422 53.974609 C 56.335422 54.104609 57.072547 54.160516 57.810547 54.103516 C 58.449547 54.060516 59.085203 53.937859 59.658203 53.630859 C 60.242203 53.343859 60.650484 52.805016 60.771484 52.166016 C 60.849484 51.771016 60.849719 51.350078 60.761719 50.955078 C 60.530719 49.964078 59.903031 49.35025 58.957031 49.03125 C 58.429031 48.86525 57.867406 48.800266 57.316406 48.822266 z M 29.808594 49 C 29.587594 49 29.511969 49.110078 29.542969 49.330078 C 29.575969 49.474078 29.619547 49.628766 29.685547 49.759766 C 30.346547 51.498766 31.017734 53.225125 31.677734 54.953125 C 31.952734 55.678125 32.238672 56.415578 32.513672 57.142578 C 32.634672 57.450578 32.831828 57.60375 33.173828 57.59375 C 33.657828 57.58375 34.143953 57.58375 34.626953 57.59375 C 34.870953 57.61575 35.099734 57.461469 35.177734 57.230469 C 35.200734 57.163469 35.233859 57.09725 35.255859 57.03125 C 35.992859 55.11625 36.729797 53.191344 37.466797 51.277344 L 38.126953 49.529297 C 38.269953 49.132297 38.181672 49.011719 37.763672 49.011719 L 36.089844 49.011719 C 35.891844 49.011719 35.705391 49.132078 35.650391 49.330078 L 35.583984 49.527344 C 35.078984 51.233344 34.572406 52.926812 34.066406 54.632812 C 33.999406 54.851813 33.935141 55.06225 33.869141 55.28125 C 33.848141 55.28125 33.835656 55.282484 33.847656 55.271484 C 33.395656 53.741484 32.956859 52.200875 32.505859 50.671875 C 32.372859 50.254875 32.251859 49.82425 32.130859 49.40625 C 32.064859 49.17525 31.943687 49 31.679688 49 C 31.064688 49 30.435594 48.99 29.808594 49 z M 39.634766 49.011719 C 39.292766 49.011719 39.205312 49.109172 39.195312 49.451172 L 39.195312 57.064453 C 39.195312 57.130453 39.195078 57.207437 39.205078 57.273438 C 39.227078 57.482438 39.326875 57.591797 39.546875 57.591797 C 40.140875 57.601797 40.724359 57.601797 41.318359 57.591797 C 41.539359 57.581797 41.637156 57.481719 41.660156 57.261719 L 41.660156 53.302734 L 41.660156 49.451172 C 41.660156 49.109172 41.562703 49.011719 41.220703 49.011719 L 39.634766 49.011719 z M 57.091797 50.511719 C 57.240344 50.498188 57.395437 50.500828 57.554688 50.517578 C 57.610688 50.517578 57.653984 50.539062 57.708984 50.539062 C 58.478984 50.660062 58.665438 51.277094 58.523438 51.871094 C 58.413438 52.311094 58.051531 52.476734 57.644531 52.552734 C 57.425531 52.595734 57.193891 52.617422 56.962891 52.607422 C 56.511891 52.597422 56.070859 52.565047 55.630859 52.498047 C 55.531859 52.487047 55.488766 52.44375 55.509766 52.34375 C 55.586766 51.91375 55.686219 51.495531 55.949219 51.144531 C 56.255219 50.740281 56.646156 50.552312 57.091797 50.511719 z M 47.705078 50.59375 C 48.140125 50.612828 48.567641 50.720844 48.962891 50.902344 C 49.093891 50.945344 49.170156 51.077703 49.160156 51.220703 C 49.139156 51.903703 49.152344 52.564375 49.152344 53.234375 L 49.152344 55.238281 C 49.174344 55.369281 49.097563 55.492875 48.976562 55.546875 C 48.448563 55.843875 47.843047 55.964953 47.248047 55.876953 C 46.742047 55.820953 46.301313 55.512547 46.070312 55.060547 C 45.894312 54.707547 45.796672 54.334219 45.763672 53.949219 C 45.675672 53.255219 45.730531 52.551859 45.894531 51.880859 C 45.949531 51.693859 46.015281 51.517797 46.113281 51.341797 C 46.344281 50.911797 46.786531 50.638469 47.269531 50.605469 C 47.415531 50.591719 47.560063 50.587391 47.705078 50.59375 z M 66.322266 50.644531 C 66.426766 50.647281 66.532219 50.659141 66.636719 50.681641 C 67.076719 50.769641 67.438719 51.056891 67.636719 51.462891 C 67.822719 51.847891 67.933078 52.277078 67.955078 52.705078 C 67.965078 52.904078 67.978797 53.100828 67.966797 53.298828 C 67.997797 53.784828 67.941547 54.257984 67.810547 54.708984 C 67.745547 54.940984 67.645906 55.149656 67.503906 55.347656 C 67.262906 55.689656 66.878938 55.908406 66.460938 55.941406 C 66.251937 55.964406 66.041031 55.964922 65.832031 55.919922 C 65.369031 55.831922 64.985828 55.525703 64.798828 55.095703 C 64.632828 54.754703 64.534953 54.380859 64.501953 54.005859 C 64.446953 53.356859 64.435844 52.707359 64.589844 52.068359 C 64.644844 51.814359 64.755719 51.562797 64.886719 51.341797 C 65.128719 50.945797 65.546766 50.693156 66.009766 50.660156 C 66.114266 50.648656 66.217766 50.641781 66.322266 50.644531 z M 67.185547 60.603516 C 66.513547 60.624516 65.848359 60.691172 65.193359 60.826172 C 64.345359 61.029172 63.544078 61.337656 62.830078 61.847656 C 62.714078 61.915656 62.619016 62.011187 62.541016 62.117188 C 62.473016 62.231187 62.443719 62.348844 62.511719 62.464844 C 62.579719 62.580844 62.695312 62.590078 62.820312 62.580078 L 63.986328 62.435547 C 64.863328 62.319547 65.749719 62.279359 66.636719 62.318359 C 66.955719 62.337359 67.2625 62.395187 67.5625 62.492188 C 67.8795 62.589188 68.092562 62.867312 68.101562 63.195312 C 68.120563 63.388312 68.111797 63.580437 68.091797 63.773438 C 68.023797 64.304438 67.917672 64.825937 67.763672 65.335938 C 67.502672 66.270938 67.175891 67.165266 66.837891 68.072266 C 66.798891 68.169266 66.779531 68.264328 66.769531 68.361328 C 66.779531 68.545328 66.895125 68.64175 67.078125 68.59375 C 67.194125 68.55475 67.299719 68.487391 67.386719 68.400391 C 67.819719 67.996391 68.194906 67.533437 68.503906 67.023438 C 69.351906 65.606437 69.863281 64.018141 69.988281 62.369141 C 70.007281 62.089141 69.997984 61.809063 69.958984 61.539062 C 69.929984 61.309063 69.786453 61.096766 69.564453 61.009766 C 69.401453 60.932766 69.238453 60.875172 69.064453 60.826172 C 68.447453 60.662172 67.821547 60.622516 67.185547 60.603516 z M 30.275391 61.097656 C 30.208016 61.113531 30.146156 61.148672 30.097656 61.201172 C 30.000656 61.306172 29.971297 61.452891 30.029297 61.587891 C 30.068297 61.684891 30.135891 61.779656 30.212891 61.847656 C 30.541891 62.156656 30.859266 62.464672 31.197266 62.763672 C 34.821266 65.971672 38.974078 68.179344 43.705078 69.277344 C 45.073078 69.594344 46.469953 69.806109 47.876953 69.912109 C 48.407953 69.951109 48.936797 69.971 49.466797 70 C 49.851797 69.99 50.238047 69.99 50.623047 70 C 52.156047 69.942 53.6795 69.777813 55.1875 69.507812 C 57.8085 69.016813 60.351422 68.159078 62.732422 66.955078 C 63.994422 66.319078 65.190828 65.557453 66.298828 64.689453 C 66.433828 64.594453 66.540188 64.469219 66.617188 64.324219 C 66.636188 64.285219 66.654062 64.238219 66.664062 64.199219 C 66.741063 63.880219 66.551422 63.553562 66.232422 63.476562 C 66.039422 63.427563 65.828297 63.455734 65.654297 63.552734 C 64.487297 64.091734 63.291359 64.556938 62.068359 64.960938 C 59.745359 65.731938 57.345969 66.280844 54.917969 66.589844 C 53.877969 66.724844 52.837109 66.820609 51.787109 66.849609 C 49.840109 66.916609 47.884266 66.830844 45.947266 66.589844 C 44.598266 66.415844 43.259687 66.174234 41.929688 65.865234 C 37.968687 64.941234 34.191422 63.379234 30.732422 61.240234 C 30.655422 61.191234 30.569422 61.154234 30.482422 61.115234 C 30.415422 61.086234 30.342766 61.081781 30.275391 61.097656 z"/></svg>