<svg xmlns="http://www.w3.org/2000/svg"  viewBox="0 0 100 100" width="200px" height="200px" baseProfile="basic"><circle cx="13" cy="29" r="2" fill="#ee3e54"/><circle cx="77" cy="13" r="1" fill="#f1bc19"/><circle cx="50" cy="50" r="37" fill="#fce0a2"/><circle cx="83" cy="15" r="4" fill="#f1bc19"/><circle cx="87" cy="24" r="2" fill="#ee3e54"/><circle cx="81" cy="76" r="2" fill="#fbcd59"/><circle cx="15" cy="63" r="4" fill="#fbcd59"/><circle cx="25" cy="87" r="2" fill="#ee3e54"/><circle cx="18.5" cy="53.5" r="2.5" fill="#fff"/><circle cx="21" cy="67" r="1" fill="#f1bc19"/><circle cx="80" cy="34" r="1" fill="#fff"/><path fill="#1e65d6" d="M29.306,67.722c-3.019-4.249-4.671-9.428-4.664-14.643c0-13.977,11.376-25.347,25.358-25.347	s25.358,11.37,25.358,25.346c0.007,5.204-1.639,10.374-4.644,14.618c-0.553-0.322-1.037-0.756-1.416-1.275	c-4.241-5.259-6.947-8.201-6.974-8.23c-1.131-1.227-1.82-1.541-2.55-1.872c-0.158-0.072-0.322-0.146-0.499-0.234	c-0.069-0.031-0.103-0.062-0.122-0.102l-5.039-8.851c-0.395-0.785-1.003-1.489-1.746-2.01l-1.254-0.88	c-0.226-0.159-0.492-0.243-0.769-0.243c-0.284,0-0.557,0.088-0.787,0.255l-1.033,0.751c-0.138,0.1-0.257,0.22-0.355,0.357	l-2.318,3.225l-1.142,0.894l-7.897,10.013l-0.588,0.253c-0.242,0.104-0.457,0.27-0.621,0.478l-4.834,6.18	C30.417,66.844,29.984,67.336,29.306,67.722z M52,31.551l-1.46-0.105L50,30.099l-0.54,1.348L48,31.551l1.126,0.922l-0.362,1.427	L50,33.108l1.236,0.793l-0.362-1.428L52,31.551z M58.53,33.219l-1.356-0.55l-0.097-1.449l-0.93,1.115l-1.421-0.352l0.786,1.225	l-0.785,1.245l1.421-0.372l0.93,1.136l0.097-1.47L58.53,33.219z M64.225,36.823l-1.12-0.943l0.355-1.408l-1.229,0.773l-1.242-0.773	l0.369,1.408l-1.131,0.942l1.466,0.085l0.534,1.368l0.546-1.368L64.225,36.823z M68.528,42.011l-0.773-1.242l0.773-1.229	l-1.408,0.355l-0.943-1.12l-0.084,1.453l-1.367,0.546l1.368,0.534l0.085,1.466l0.942-1.132L68.528,42.011z M71.017,48.274	l-0.352-1.421l1.115-0.93l-1.449-0.097l-0.55-1.356l-0.529,1.356l-1.469,0.097l1.136,0.931l-0.372,1.421l1.246-0.786L71.017,48.274z M71.449,55l0.105-1.46L72.901,53l-1.348-0.54L71.449,51l-0.922,1.126l-1.427-0.362L69.892,53l-0.793,1.236l1.428-0.362L71.449,55z M69.781,61.53l0.55-1.356l1.449-0.097l-1.115-0.93l0.352-1.421l-1.225,0.786l-1.245-0.785l0.372,1.421l-1.136,0.93l1.47,0.097	L69.781,61.53z M45.274,31.983l-1.421,0.352l-0.93-1.115l-0.097,1.449l-1.356,0.55l1.356,0.529l0.097,1.469l0.931-1.136l1.421,0.372	l-0.786-1.246L45.274,31.983z M39.011,34.472l-1.242,0.773l-1.229-0.773l0.355,1.408l-1.12,0.943l1.453,0.084l0.546,1.367	l0.534-1.368l1.466-0.085l-1.132-0.942L39.011,34.472z M33.823,38.775l-0.943,1.12l-1.408-0.355l0.773,1.229l-0.773,1.242	l1.408-0.369l0.942,1.131l0.085-1.466l1.368-0.534l-1.368-0.546L33.823,38.775z M30.219,44.47l-0.55,1.356l-1.449,0.097l1.115,0.93	l-0.352,1.421l1.225-0.786l1.245,0.785l-0.372-1.421l1.136-0.93l-1.47-0.097L30.219,44.47z M28.551,51l-0.105,1.46L27.099,53	l1.348,0.54L28.551,55l0.922-1.126l1.427,0.362L30.108,53l0.793-1.236l-1.428,0.362L28.551,51z M28.983,57.726l0.352,1.421	l-1.115,0.93l1.449,0.097l0.55,1.356l0.529-1.356l1.469-0.097l-1.136-0.931l0.372-1.421l-1.246,0.786L28.983,57.726z"/><path fill="#1e65d6" d="M43.299,60.879c-0.259-0.108-0.685-0.585,0.023-1.913l1.643-3.434c0.05-0.104-0.07-0.234-0.145-0.146	l-1.437,1.445c-0.68,0.71-1.833,2.704-2.056,3.073l-1.745,2.885c0.13-0.004,0.238,0.098,0.242,0.227	c0.001,0.043-0.009,0.085-0.03,0.122l-1.595,2.68c-0.39,0.665,0.31,1.129,0.405,0.976c2.508-4.039,3.966-3.716,3.966-3.716	l0.837-1.938c0.044-0.097,0.001-0.212-0.096-0.256C43.308,60.882,43.304,60.88,43.299,60.879z"/><path fill="#472b29" d="M38.54,67.323c-0.124,0-0.261-0.036-0.4-0.121c-0.478-0.287-0.77-0.958-0.372-1.637l1.449-2.435	c-0.025-0.027-0.048-0.057-0.066-0.09c-0.093-0.158-0.091-0.354,0.004-0.511l1.852-3.063c0.64-1.076,1.447-2.387,2.017-2.981	l1.443-1.452c0.167-0.197,0.484-0.241,0.728-0.082c0.264,0.171,0.359,0.514,0.223,0.796l-1.643,3.434	c-0.465,0.873-0.337,1.199-0.278,1.237c0.014,0.006,0.029,0.013,0.04,0.018c0.33,0.15,0.484,0.561,0.328,0.909l-0.834,1.931	c-0.095,0.219-0.328,0.342-0.566,0.29c0.021,0.005-1.238-0.044-3.434,3.492C38.933,67.214,38.755,67.323,38.54,67.323z M38.181,66.529c-0.001,0-0.001,0.001-0.002,0.002C38.18,66.531,38.18,66.53,38.181,66.529z M40.235,62.674	c0.054,0.098,0.085,0.209,0.089,0.327c0.003,0.138-0.03,0.271-0.096,0.386l-0.827,1.388c1.32-1.659,2.292-2.092,2.834-2.184	l0.61-1.413c-0.146-0.124-0.261-0.291-0.33-0.484c-0.182-0.506-0.059-1.167,0.365-1.963l0.588-1.229	c-0.563,0.727-1.326,2.009-1.604,2.476L40.235,62.674z M42.948,60.941c-0.001,0.003-0.003,0.006-0.004,0.009L42.948,60.941z M45.2,55.711l-0.042,0.042C45.173,55.74,45.188,55.726,45.2,55.711z M44.515,55.315c0,0,0,0.001-0.001,0.001L44.515,55.315z"/><path fill="#472b29" d="M50,28.532c13.541,0,24.558,11.011,24.558,24.548c0.007,4.77-1.421,9.512-4.044,13.491	c-0.212-0.185-0.403-0.394-0.57-0.623c-0.013-0.018-0.027-0.036-0.041-0.053c-4.235-5.25-6.964-8.218-6.99-8.247	c-1.241-1.347-2.038-1.709-2.808-2.059c-0.11-0.05-0.223-0.101-0.342-0.158l-4.937-8.667c-0.468-0.915-1.158-1.709-1.999-2.299	l-1.254-0.879c-0.362-0.254-0.786-0.388-1.228-0.388c-0.454,0-0.889,0.141-1.257,0.409l-1.032,0.75	c-0.207,0.15-0.387,0.331-0.536,0.538l-2.251,3.132l-0.995,0.779c-0.088,0.069-0.167,0.148-0.236,0.236l-7.727,9.797l-0.401,0.173	c-0.367,0.158-0.691,0.407-0.936,0.722l-4.822,6.164c-0.191,0.237-0.395,0.479-0.647,0.702c-2.634-3.985-4.07-8.737-4.063-13.521	C25.442,39.544,36.459,28.532,50,28.532 M50,27.132c-14.337,0-25.959,11.616-25.959,25.946c-0.008,5.547,1.772,10.949,5.075,15.406	c1.089-0.47,1.694-1.173,2.126-1.711l4.833-6.179c0.102-0.13,0.235-0.233,0.387-0.298l0.728-0.313l7.947-10.076l1.152-0.902	l2.368-3.294c0.061-0.085,0.136-0.16,0.221-0.222l1.033-0.751c0.129-0.094,0.282-0.141,0.434-0.141c0.148,0,0.297,0.045,0.424,0.134	l1.254,0.88c0.665,0.467,1.204,1.09,1.569,1.816l5.022,8.817c0.082,0.168,0.221,0.302,0.393,0.376	c0.985,0.49,1.587,0.577,2.875,1.976c0.601,0.652,3.237,3.599,6.93,8.177c0.537,0.735,1.255,1.317,2.085,1.69	c3.293-4.453,5.067-9.847,5.059-15.386C75.958,38.749,64.337,27.132,50,27.132L50,27.132z"/><path fill="#1e65d6" d="M59.403,69.073c0.125-0.181,0.327-0.678-0.053-1.599l-1.149-3.088	c-0.156-0.394,0.186-0.633,0.415-0.374c0,0,2.171,2.502,2.732,3.547l1.071,1.777c0.921,0.059,3.463,0.129,5.91,0.129	c-0.246-0.245-0.474-0.507-0.681-0.786c-4.175-5.174-6.823-8.052-6.85-8.081c-0.846-0.919-1.237-1.096-1.883-1.39	c-0.093-0.042-0.195-0.088-0.299-0.138v0.786c0.006,0.053-0.032,0.101-0.085,0.108c-0.043,0.005-0.084-0.019-0.101-0.059	l-6.138-10.778l-0.017-0.034c-0.256-0.508-0.633-0.944-1.098-1.271l-0.599-0.421l-2.928,6.753c0.35,0,0.634,0.283,0.634,0.633	c0,0.087-0.018,0.172-0.052,0.252l-2.706,6.256h2.484c0.96,0,1.911,0.187,2.799,0.551l0.655,0.268c0,0-1.975,4.062-1.975,6.201	c0.003,0.389,0.057,0.776,0.161,1.151h4.553l-0.211-1.282C55.776,68.58,57.583,68.878,59.403,69.073L59.403,69.073L59.403,69.073z"/><path fill="#472b29" d="M68.328,69.964c-2.429,0-4.976-0.067-5.942-0.13c-0.163-0.011-0.312-0.101-0.396-0.241l-1.07-1.776	c-0.314-0.585-1.163-1.658-1.822-2.458l0.722,1.941c0.479,1.156,0.156,1.825-0.005,2.058c-0.104,0.15-0.275,0.234-0.465,0.213	c-1.585-0.17-3.178-0.42-4.746-0.746l0.092,0.558c0.024,0.145-0.017,0.292-0.112,0.405c-0.095,0.112-0.234,0.176-0.381,0.176h-4.553	c-0.225,0-0.422-0.15-0.481-0.367c-0.116-0.418-0.177-0.849-0.18-1.28c0-1.805,1.27-4.778,1.8-5.941l-0.169-0.069	c-0.832-0.341-1.71-0.514-2.609-0.514h-2.483c-0.168,0-0.325-0.085-0.418-0.226S45,61.25,45.066,61.095l2.705-6.256	c0.012-0.126-0.048-0.187-0.121-0.187l0,0c-0.001,0-0.001,0-0.001,0c-0.168,0-0.325-0.084-0.418-0.226	c-0.093-0.141-0.107-0.319-0.041-0.473l2.928-6.753c0.06-0.138,0.179-0.242,0.323-0.283c0.147-0.04,0.3-0.014,0.423,0.072	l0.599,0.42c0.531,0.373,0.966,0.876,1.258,1.456l5.586,9.81c0.013-0.011,0.027-0.021,0.042-0.03	c0.146-0.092,0.327-0.103,0.481-0.028l0.278,0.128c0.695,0.316,1.144,0.52,2.057,1.513c0.017,0.018,2.701,2.938,6.87,8.105	c0.205,0.274,0.419,0.52,0.646,0.746c0.144,0.143,0.187,0.358,0.109,0.545C68.713,69.842,68.53,69.964,68.328,69.964z M50.048,68.963h3.564l-0.115-0.701c-0.027-0.164,0.029-0.331,0.149-0.444c0.12-0.115,0.29-0.162,0.452-0.125	c1.634,0.364,3.303,0.646,4.967,0.839c0.017-0.18-0.009-0.46-0.178-0.869l-1.155-3.104c-0.161-0.407-0.042-0.843,0.295-1.05	c0.307-0.191,0.705-0.122,0.963,0.17c0.094,0.108,2.218,2.561,2.798,3.642l0.922,1.529c0.922,0.047,2.711,0.094,4.521,0.108	c-4.165-5.162-6.775-7.995-6.8-8.021c-0.594-0.646-0.918-0.882-1.316-1.084v0c0,0.111-0.057,0.291-0.125,0.378	c-0.099,0.126-0.24,0.207-0.399,0.226c-0.259,0.028-0.519-0.116-0.622-0.362l-6.111-10.724c-0.248-0.49-0.572-0.866-0.969-1.144	l-0.097-0.068l-2.476,5.709c0.282,0.206,0.466,0.539,0.467,0.914c0,0.16-0.032,0.313-0.096,0.456l-2.401,5.553h1.723	c1.029,0,2.035,0.198,2.988,0.588l0.654,0.268c0.128,0.053,0.229,0.155,0.277,0.285c0.05,0.129,0.043,0.272-0.018,0.397	c-0.019,0.04-1.924,3.983-1.924,5.982C49.989,68.529,50.009,68.747,50.048,68.963z M58.119,59.821c-0.004,0.032-0.004,0.065,0,0.098	V59.821z"/><path fill="#472b29" d="M35.559,57.544c-0.108,0-0.218-0.035-0.31-0.107c-0.217-0.171-0.254-0.485-0.083-0.702l1.89-2.395	c0.172-0.217,0.485-0.253,0.702-0.083c0.217,0.171,0.254,0.485,0.083,0.702l-1.89,2.395C35.853,57.479,35.706,57.544,35.559,57.544z"/><path fill="#472b29" d="M39.172,52.965c-0.108,0-0.218-0.035-0.31-0.107c-0.217-0.171-0.254-0.485-0.083-0.702l3.763-4.768	c0.172-0.216,0.486-0.252,0.702-0.083c0.217,0.171,0.254,0.485,0.083,0.702l-3.763,4.768C39.466,52.899,39.319,52.965,39.172,52.965	z"/><path fill="#472b29" d="M59.426,51.903c-0.174,0-0.342-0.091-0.435-0.252l-3.104-5.448c-0.565-1.092-1.382-2.025-2.371-2.718	c-0.226-0.159-0.281-0.47-0.122-0.697c0.158-0.227,0.47-0.279,0.696-0.123c1.121,0.785,2.046,1.844,2.676,3.06l3.094,5.431	c0.137,0.24,0.053,0.545-0.188,0.682C59.595,51.882,59.51,51.903,59.426,51.903z"/><path fill="#472b29" d="M64.163,56.996c-0.135,0-0.27-0.054-0.368-0.161c-1.274-1.383-2.162-1.86-3.034-2.265	c-0.251-0.116-0.359-0.413-0.244-0.664c0.117-0.25,0.416-0.36,0.664-0.244c0.929,0.43,1.952,0.977,3.351,2.494	c0.187,0.203,0.174,0.52-0.029,0.707C64.406,56.952,64.284,56.996,64.163,56.996z"/><path fill="#472b29" d="M50,30.099l0.54,1.348L52,31.551l-1.126,0.922l0.362,1.428L50,33.108l-1.236,0.793l0.362-1.427	L48,31.551l1.46-0.105L50,30.099 M50,29.599c-0.204,0-0.388,0.124-0.464,0.314l-0.424,1.057l-1.148,0.082	c-0.204,0.015-0.379,0.152-0.441,0.347c-0.062,0.195,0.001,0.408,0.16,0.538l0.88,0.721l-0.284,1.119	c-0.05,0.199,0.026,0.409,0.193,0.529c0.087,0.063,0.19,0.094,0.292,0.094c0.094,0,0.188-0.026,0.27-0.079L50,33.702l0.966,0.62	c0.082,0.053,0.176,0.079,0.27,0.079c0.103,0,0.205-0.032,0.292-0.094c0.167-0.12,0.243-0.33,0.192-0.529l-0.284-1.119l0.88-0.72	c0.158-0.13,0.222-0.343,0.16-0.538c-0.062-0.195-0.237-0.333-0.441-0.347l-1.148-0.082l-0.424-1.057	C50.388,29.724,50.204,29.599,50,29.599L50,29.599z"/><path fill="#472b29" d="M57.077,31.22l0.097,1.449l1.356,0.551l-1.355,0.529l-0.097,1.47l-0.93-1.136l-1.421,0.372	l0.785-1.245l-0.786-1.225l1.421,0.352L57.077,31.22 M57.077,30.72c-0.146,0-0.287,0.064-0.384,0.18l-0.73,0.875l-1.117-0.277	c-0.04-0.01-0.08-0.015-0.12-0.015c-0.159,0-0.311,0.076-0.406,0.209c-0.119,0.166-0.125,0.389-0.014,0.561l0.614,0.958	l-0.615,0.976c-0.109,0.174-0.102,0.397,0.02,0.562c0.096,0.131,0.246,0.204,0.403,0.204c0.042,0,0.085-0.005,0.127-0.016	l1.11-0.291l0.727,0.888c0.097,0.118,0.24,0.183,0.387,0.183c0.051,0,0.102-0.008,0.152-0.024c0.196-0.063,0.333-0.238,0.346-0.443	l0.076-1.152l1.059-0.413c0.191-0.074,0.317-0.258,0.318-0.462c0.001-0.205-0.122-0.39-0.312-0.467l-1.066-0.433l-0.076-1.137	c-0.014-0.204-0.15-0.379-0.344-0.442C57.181,30.728,57.128,30.72,57.077,30.72L57.077,30.72z"/><path fill="#472b29" d="M60.989,34.472l1.242,0.773l1.229-0.773l-0.355,1.408l1.12,0.943l-1.452,0.084l-0.546,1.368	l-0.534-1.368l-1.466-0.085l1.131-0.942L60.989,34.472 M60.989,33.972c-0.104,0-0.209,0.033-0.297,0.097	c-0.165,0.121-0.239,0.331-0.187,0.529l0.288,1.1l-0.887,0.738c-0.158,0.131-0.219,0.346-0.155,0.541s0.241,0.331,0.446,0.343	l1.146,0.066l0.417,1.069c0.075,0.191,0.259,0.317,0.464,0.318c0.001,0,0.001,0,0.002,0c0.204,0,0.388-0.125,0.464-0.315	l0.428-1.072l1.135-0.066c0.204-0.012,0.381-0.147,0.446-0.341c0.065-0.194,0.004-0.408-0.152-0.54l-0.88-0.741l0.279-1.105	c0.05-0.198-0.026-0.407-0.191-0.527c-0.087-0.064-0.191-0.096-0.294-0.096c-0.092,0-0.185,0.025-0.266,0.077l-0.964,0.606	l-0.977-0.608C61.172,33.997,61.081,33.972,60.989,33.972L60.989,33.972z"/><path fill="#472b29" d="M66.177,38.775l0.943,1.12l1.408-0.355l-0.773,1.229l0.774,1.242l-1.407-0.369l-0.942,1.132	l-0.085-1.466l-1.368-0.534l1.367-0.546L66.177,38.775 M66.177,38.275c-0.053,0-0.106,0.008-0.158,0.026	c-0.194,0.065-0.33,0.241-0.341,0.445l-0.066,1.136L64.54,40.31c-0.191,0.076-0.315,0.261-0.314,0.466	c0.001,0.205,0.127,0.389,0.318,0.464l1.069,0.417l0.066,1.146c0.012,0.205,0.148,0.382,0.343,0.446	c0.051,0.017,0.104,0.025,0.156,0.025c0.146,0,0.288-0.064,0.384-0.18l0.739-0.888l1.1,0.288c0.042,0.011,0.085,0.016,0.127,0.016	c0.156,0,0.307-0.074,0.402-0.203c0.121-0.165,0.13-0.387,0.022-0.561l-0.608-0.977l0.606-0.964c0.109-0.173,0.101-0.395-0.019-0.56	c-0.095-0.131-0.247-0.206-0.405-0.206c-0.041,0-0.082,0.005-0.122,0.015L67.3,39.333l-0.741-0.88	C66.462,38.338,66.322,38.275,66.177,38.275L66.177,38.275z"/><path fill="#472b29" d="M69.781,44.47l0.55,1.356l1.449,0.097l-1.115,0.93l0.352,1.421l-1.224-0.786l-1.246,0.786	l0.372-1.421l-1.136-0.931l1.469-0.097L69.781,44.47 M69.781,43.97c-0.001,0-0.002,0-0.003,0c-0.205,0.001-0.388,0.127-0.462,0.318	l-0.414,1.06l-1.152,0.076c-0.205,0.014-0.381,0.151-0.443,0.346c-0.063,0.195,0.001,0.409,0.159,0.539l0.888,0.727l-0.291,1.11	c-0.052,0.199,0.023,0.409,0.188,0.53c0.088,0.064,0.192,0.097,0.296,0.097c0.092,0,0.185-0.026,0.267-0.077l0.977-0.616	l0.957,0.614c0.082,0.053,0.176,0.079,0.27,0.079c0.102,0,0.204-0.031,0.291-0.093c0.167-0.119,0.243-0.328,0.194-0.527	l-0.276-1.117l0.875-0.73c0.157-0.131,0.218-0.344,0.155-0.538c-0.063-0.194-0.238-0.331-0.442-0.344l-1.137-0.076l-0.433-1.066	C70.167,44.093,69.984,43.97,69.781,43.97L69.781,43.97z"/><path fill="#472b29" d="M71.448,51l0.104,1.46L72.901,53l-1.348,0.54L71.448,55l-0.922-1.126l-1.428,0.362L69.892,53	l-0.793-1.236l1.427,0.362L71.448,51 M71.448,50.5c-0.147,0-0.29,0.065-0.387,0.183l-0.721,0.88l-1.119-0.283	c-0.041-0.01-0.082-0.015-0.123-0.015c-0.158,0-0.31,0.075-0.406,0.208c-0.12,0.167-0.126,0.39-0.015,0.562L69.298,53l-0.62,0.966	c-0.111,0.173-0.105,0.396,0.015,0.562c0.095,0.132,0.247,0.208,0.406,0.208c0.041,0,0.082-0.005,0.123-0.015l1.119-0.284l0.72,0.88	c0.097,0.118,0.24,0.183,0.387,0.183c0.05,0,0.101-0.008,0.151-0.023c0.195-0.062,0.333-0.237,0.348-0.441l0.082-1.148l1.057-0.424	c0.19-0.076,0.314-0.26,0.314-0.464s-0.124-0.388-0.314-0.464l-1.057-0.424l-0.082-1.148c-0.015-0.204-0.152-0.379-0.347-0.441	C71.55,50.508,71.499,50.5,71.448,50.5L71.448,50.5z"/><path fill="#472b29" d="M71.017,57.726l-0.352,1.421l1.115,0.93l-1.449,0.097l-0.55,1.356l-0.529-1.355l-1.47-0.097	l1.136-0.93l-0.372-1.421l1.245,0.785L71.017,57.726 M71.017,57.226c-0.094,0-0.188,0.026-0.27,0.079l-0.958,0.614l-0.976-0.615	c-0.082-0.051-0.174-0.077-0.267-0.077c-0.104,0-0.208,0.032-0.296,0.097c-0.166,0.121-0.24,0.332-0.188,0.53l0.291,1.11	l-0.888,0.727c-0.159,0.13-0.222,0.344-0.159,0.539c0.063,0.195,0.239,0.333,0.443,0.346l1.152,0.076l0.413,1.059	c0.074,0.191,0.258,0.317,0.462,0.318c0.001,0,0.002,0,0.003,0c0.203,0,0.387-0.123,0.463-0.312l0.433-1.066l1.137-0.076	c0.204-0.014,0.379-0.15,0.442-0.344c0.063-0.194,0.002-0.408-0.155-0.538l-0.875-0.73l0.276-1.117	c0.049-0.199-0.028-0.407-0.194-0.527C71.221,57.257,71.119,57.226,71.017,57.226L71.017,57.226z"/><path fill="#472b29" d="M42.923,31.22l0.93,1.115l1.421-0.352l-0.786,1.224l0.786,1.246l-1.421-0.372l-0.931,1.136	l-0.097-1.469l-1.356-0.529l1.356-0.55L42.923,31.22 M42.923,30.72c-0.052,0-0.104,0.008-0.154,0.024	c-0.194,0.063-0.331,0.238-0.344,0.442l-0.076,1.137l-1.066,0.433c-0.19,0.077-0.313,0.262-0.312,0.467	c0.001,0.205,0.127,0.388,0.318,0.462l1.06,0.414l0.076,1.152c0.014,0.205,0.151,0.381,0.346,0.443	c0.05,0.016,0.102,0.024,0.153,0.024c0.147,0,0.29-0.065,0.387-0.183l0.727-0.888l1.11,0.291c0.042,0.011,0.085,0.016,0.127,0.016	c0.157,0,0.308-0.074,0.403-0.205c0.121-0.166,0.129-0.389,0.02-0.562l-0.616-0.977l0.614-0.957	c0.111-0.172,0.105-0.395-0.014-0.561c-0.095-0.133-0.248-0.209-0.406-0.209c-0.04,0-0.08,0.005-0.12,0.015l-1.117,0.277	l-0.73-0.875C43.211,30.784,43.069,30.72,42.923,30.72L42.923,30.72z"/><path fill="#472b29" d="M39.011,34.472l-0.369,1.407l1.132,0.942l-1.466,0.085l-0.534,1.368l-0.546-1.367l-1.453-0.084	l1.12-0.943l-0.355-1.408l1.229,0.773L39.011,34.472 M39.011,33.972c-0.092,0-0.183,0.025-0.264,0.076l-0.977,0.608l-0.964-0.606	c-0.082-0.051-0.174-0.077-0.266-0.077c-0.103,0-0.207,0.032-0.294,0.095c-0.165,0.12-0.241,0.329-0.191,0.527l0.279,1.105	l-0.88,0.741c-0.157,0.132-0.217,0.346-0.152,0.54s0.241,0.33,0.445,0.341l1.136,0.066l0.428,1.072	c0.076,0.19,0.26,0.314,0.464,0.314c0.001,0,0.001,0,0.002,0c0.205-0.001,0.389-0.127,0.464-0.318l0.417-1.069l1.146-0.066	c0.205-0.012,0.382-0.148,0.446-0.343c0.064-0.195,0.003-0.409-0.155-0.541l-0.888-0.739l0.288-1.1	c0.052-0.198-0.022-0.408-0.187-0.529C39.22,34.005,39.115,33.972,39.011,33.972L39.011,33.972z"/><path fill="#472b29" d="M33.823,38.775l0.084,1.452l1.368,0.546l-1.368,0.534l-0.085,1.466l-0.942-1.131l-1.408,0.369	l0.773-1.242l-0.773-1.229l1.408,0.355L33.823,38.775 M33.823,38.275c-0.145,0-0.286,0.063-0.383,0.178l-0.741,0.88l-1.104-0.279	c-0.041-0.01-0.082-0.015-0.122-0.015c-0.158,0-0.309,0.075-0.405,0.206c-0.12,0.165-0.128,0.387-0.019,0.56l0.606,0.965	l-0.608,0.977c-0.108,0.174-0.099,0.396,0.022,0.561c0.096,0.13,0.246,0.203,0.403,0.203c0.042,0,0.085-0.005,0.127-0.016l1.1-0.288	l0.738,0.887c0.097,0.116,0.239,0.18,0.384,0.18c0.052,0,0.105-0.008,0.156-0.025c0.195-0.064,0.331-0.241,0.343-0.446l0.066-1.146	l1.069-0.417c0.191-0.075,0.317-0.259,0.318-0.464s-0.124-0.39-0.315-0.466l-1.072-0.428l-0.066-1.135	c-0.012-0.204-0.147-0.381-0.341-0.446C33.929,38.283,33.876,38.275,33.823,38.275L33.823,38.275z"/><path fill="#472b29" d="M30.219,44.47l0.529,1.355l1.47,0.097l-1.136,0.93l0.372,1.421l-1.245-0.785l-1.225,0.786	l0.352-1.421l-1.115-0.93l1.449-0.097L30.219,44.47 M30.219,43.97c-0.203,0-0.387,0.123-0.463,0.312l-0.433,1.066l-1.137,0.076	c-0.204,0.014-0.379,0.15-0.442,0.344c-0.063,0.194-0.002,0.408,0.155,0.538l0.875,0.73l-0.276,1.117	c-0.049,0.199,0.028,0.407,0.194,0.527c0.087,0.062,0.189,0.094,0.291,0.094c0.094,0,0.188-0.026,0.27-0.079l0.958-0.614	l0.976,0.615c0.082,0.051,0.174,0.077,0.267,0.077c0.104,0,0.208-0.032,0.296-0.097c0.166-0.121,0.24-0.332,0.188-0.53l-0.291-1.11	l0.888-0.727c0.159-0.13,0.222-0.344,0.159-0.539c-0.063-0.195-0.239-0.333-0.443-0.346l-1.152-0.076l-0.413-1.059	c-0.074-0.191-0.258-0.317-0.462-0.318C30.222,43.97,30.22,43.97,30.219,43.97L30.219,43.97z"/><path fill="#472b29" d="M28.552,51l0.922,1.126l1.428-0.362L30.108,53l0.793,1.236l-1.427-0.362L28.552,55l-0.104-1.46	L27.099,53l1.348-0.54L28.552,51 M28.551,50.5c-0.05,0-0.101,0.008-0.151,0.023c-0.195,0.062-0.333,0.237-0.348,0.441l-0.082,1.148	l-1.057,0.424c-0.19,0.076-0.314,0.26-0.314,0.464s0.124,0.388,0.314,0.464l1.057,0.424l0.082,1.148	c0.015,0.204,0.152,0.379,0.347,0.441c0.05,0.016,0.101,0.023,0.151,0.023c0.147,0,0.29-0.065,0.387-0.183l0.721-0.88l1.119,0.283	c0.041,0.01,0.082,0.015,0.123,0.015c0.158,0,0.31-0.075,0.406-0.208c0.12-0.167,0.126-0.39,0.015-0.562L30.702,53l0.62-0.966	c0.111-0.173,0.105-0.396-0.015-0.562c-0.095-0.132-0.247-0.208-0.406-0.208c-0.041,0-0.082,0.005-0.123,0.015l-1.119,0.284	l-0.72-0.88C28.842,50.565,28.699,50.5,28.551,50.5L28.551,50.5z"/><path fill="#472b29" d="M28.983,57.726l1.224,0.786l1.246-0.786l-0.372,1.421l1.136,0.931l-1.469,0.097l-0.529,1.356	l-0.55-1.356l-1.449-0.097l1.115-0.93L28.983,57.726 M28.983,57.226c-0.102,0-0.204,0.031-0.291,0.093	c-0.167,0.119-0.243,0.328-0.194,0.527l0.276,1.117l-0.875,0.73c-0.157,0.131-0.218,0.344-0.155,0.538	c0.063,0.194,0.238,0.331,0.442,0.344l1.137,0.076l0.433,1.066c0.077,0.189,0.26,0.312,0.463,0.312c0.001,0,0.002,0,0.003,0	c0.205-0.001,0.388-0.127,0.462-0.318l0.414-1.06l1.152-0.076c0.205-0.014,0.381-0.151,0.443-0.346	c0.063-0.195-0.001-0.409-0.159-0.539l-0.888-0.727l0.291-1.11c0.052-0.199-0.023-0.409-0.188-0.53	c-0.088-0.064-0.192-0.097-0.296-0.097c-0.092,0-0.185,0.026-0.267,0.077l-0.977,0.616l-0.957-0.614	C29.171,57.252,29.077,57.226,28.983,57.226L28.983,57.226z"/></svg>