<svg fill="#000000" xmlns="http://www.w3.org/2000/svg"  viewBox="0 0 100 100" width="200px" height="200px"><path d="M 30.994141 17.816406 C 23.814141 17.816406 17.994141 23.636406 17.994141 30.816406 L 17.994141 69.816406 C 17.994141 76.996406 23.814141 82.816406 30.994141 82.816406 L 69.994141 82.816406 C 77.173141 82.816406 82.994141 76.996406 82.994141 69.816406 L 82.994141 30.816406 C 82.994141 23.636406 77.174141 17.816406 69.994141 17.816406 L 30.994141 17.816406 z M 30.994141 19.816406 L 69.994141 19.816406 C 76.069141 19.816406 80.994141 24.741406 80.994141 30.816406 L 80.994141 69.816406 C 80.994141 75.891406 76.069141 80.816406 69.994141 80.816406 L 30.994141 80.816406 C 24.919141 80.816406 19.994141 75.891406 19.994141 69.816406 L 19.994141 30.816406 C 19.994141 24.741406 24.918141 19.816406 30.994141 19.816406 z M 33.830078 22.816406 C 27.845078 22.816406 22.994141 27.667344 22.994141 33.652344 L 22.994141 66.978516 C 22.994141 72.963516 27.845078 77.816406 33.830078 77.816406 L 67.15625 77.816406 C 73.14125 77.816406 77.994141 72.964516 77.994141 66.978516 L 77.994141 48.316406 C 77.994141 48.040406 77.770141 47.816406 77.494141 47.816406 C 77.218141 47.816406 76.994141 48.040406 76.994141 48.316406 L 76.994141 66.978516 C 76.994141 72.411516 72.58925 76.816406 67.15625 76.816406 L 33.832031 76.816406 C 28.399031 76.816406 23.994141 72.411516 23.994141 66.978516 L 23.994141 33.652344 C 23.994141 28.219344 28.397078 23.816406 33.830078 23.816406 L 67.494141 23.816406 C 67.770141 23.816406 67.994141 23.592406 67.994141 23.316406 C 67.994141 23.040406 67.770141 22.816406 67.494141 22.816406 L 33.830078 22.816406 z M 38.5 28.816406 A 0.50005 0.50005 0 0 0 38 29.316406 L 38 72.34375 A 0.50005 0.50005 0 0 0 38.566406 72.839844 L 47.404297 71.648438 A 0.50005 0.50005 0 0 0 47.837891 71.154297 L 47.900391 54.9375 L 54.117188 71.40625 A 0.50005 0.50005 0 0 0 54.521484 71.726562 L 63.150391 72.814453 A 0.50005 0.50005 0 0 0 63.255859 72.816406 L 63.433594 72.839844 A 0.50005 0.50005 0 0 0 64 72.34375 L 64 29.316406 A 0.50005 0.50005 0 0 0 63.5 28.816406 L 54.5 28.816406 A 0.50005 0.50005 0 0 0 54 29.318359 L 54.066406 45.830078 L 47.998047 29.226562 A 0.50005 0.50005 0 0 0 47.509766 28.816406 A 0.50005 0.50005 0 0 0 47.5 28.816406 L 38.5 28.816406 z M 39.486328 29.816406 L 47.150391 29.816406 L 62.453125 71.697266 L 54.914062 70.683594 L 39.486328 29.816406 z M 55.001953 29.816406 L 63 29.816406 L 63 70.28125 L 55.070312 48.580078 A 0.50005 0.50005 0 0 0 55.076172 48.496094 L 55.001953 29.816406 z M 39 31.359375 L 46.927734 52.361328 A 0.50005 0.50005 0 0 0 46.927734 52.363281 A 0.50005 0.50005 0 0 0 46.910156 52.496094 L 46.837891 70.714844 L 39 71.771484 L 39 31.359375 z M 77.494141 36.394531 C 77.218141 36.394531 76.994141 36.618531 76.994141 36.894531 L 76.994141 38.894531 C 76.994141 39.170531 77.218141 39.394531 77.494141 39.394531 C 77.770141 39.394531 77.994141 39.171531 77.994141 38.894531 L 77.994141 36.894531 C 77.994141 36.618531 77.770141 36.394531 77.494141 36.394531 z M 77.494141 40.394531 C 77.218141 40.394531 76.994141 40.618531 76.994141 40.894531 L 76.994141 44.894531 C 76.994141 45.170531 77.218141 45.394531 77.494141 45.394531 C 77.770141 45.394531 77.994141 45.171531 77.994141 44.894531 L 77.994141 40.894531 C 77.994141 40.618531 77.770141 40.394531 77.494141 40.394531 z"/></svg>