<svg fill="#000000" xmlns="http://www.w3.org/2000/svg"  viewBox="0 0 100 100" width="200px" height="200px"><path d="M 31 17.994141 C 23.82 17.994141 18 23.814141 18 30.994141 L 18 69.994141 C 18 77.174141 23.82 82.994141 31 82.994141 L 70 82.994141 C 77.179 82.994141 83 77.174141 83 69.994141 L 83 30.994141 C 83 23.814141 77.18 17.994141 70 17.994141 L 31 17.994141 z M 31 19.994141 L 70 19.994141 C 76.075 19.994141 81 24.919141 81 30.994141 L 81 69.994141 C 81 76.069141 76.075 80.994141 70 80.994141 L 31 80.994141 C 24.925 80.994141 20 76.069141 20 69.994141 L 20 30.994141 C 20 24.919141 24.924 19.994141 31 19.994141 z M 33.837891 22.994141 C 27.852891 22.994141 23 27.845078 23 33.830078 L 23 67.15625 C 23 73.14125 27.852891 77.994141 33.837891 77.994141 L 67.162109 77.994141 C 73.147109 77.994141 78 73.14225 78 67.15625 L 78 48.494141 C 78 48.218141 77.776 47.994141 77.5 47.994141 C 77.224 47.994141 77 48.218141 77 48.494141 L 77 67.15625 C 77 72.58925 72.595109 76.994141 67.162109 76.994141 L 33.837891 76.994141 C 28.404891 76.994141 24 72.58925 24 67.15625 L 24 33.830078 C 24 28.397078 28.404891 23.994141 33.837891 23.994141 L 67.5 23.994141 C 67.776 23.994141 68 23.770141 68 23.494141 C 68 23.218141 67.776 22.994141 67.5 22.994141 L 33.837891 22.994141 z M 77.5 36.572266 C 77.224 36.572266 77 36.796266 77 37.072266 L 77 39.072266 C 77 39.348266 77.224 39.572266 77.5 39.572266 C 77.776 39.572266 78 39.349266 78 39.072266 L 78 37.072266 C 78 36.796266 77.776 36.572266 77.5 36.572266 z M 42.414062 37.648438 A 0.50005 0.50005 0 0 0 42.349609 37.654297 A 0.50005 0.50005 0 0 0 42.105469 37.757812 C 39.983181 38.162686 38.813996 39.435607 38.326172 40.646484 C 37.867774 41.784321 37.937245 42.634508 37.947266 42.841797 A 0.50005 0.50005 0 0 0 38.398438 43.558594 L 38.402344 43.558594 A 0.50005 0.50005 0 0 0 38.46875 43.552734 A 0.50005 0.50005 0 0 0 38.712891 43.449219 C 40.835179 43.044346 42.004362 41.771424 42.492188 40.560547 C 42.950586 39.42271 42.881115 38.572523 42.871094 38.365234 A 0.50005 0.50005 0 0 0 42.419922 37.648438 L 42.414062 37.648438 z M 41.785156 38.933594 C 41.767696 39.308016 41.824886 39.539095 41.564453 40.185547 C 41.214728 41.053634 40.415533 41.843972 39.033203 42.273438 C 39.050663 41.899014 38.993473 41.667936 39.253906 41.021484 C 39.603631 40.153398 40.402826 39.363058 41.785156 38.933594 z M 77.5 40.572266 C 77.224 40.572266 77 40.796266 77 41.072266 L 77 45.072266 C 77 45.348266 77.224 45.572266 77.5 45.572266 C 77.776 45.572266 78 45.349266 78 45.072266 L 78 41.072266 C 78 40.796266 77.776 40.572266 77.5 40.572266 z M 52.183594 40.789062 C 51.722818 40.789062 51.16094 40.858832 50.693359 41.164062 C 50.304719 41.417524 50.017578 41.830227 50.017578 42.285156 L 50.017578 56.943359 C 50.017578 58.556983 50.479036 59.859739 51.429688 60.728516 C 52.379941 61.59693 53.75588 61.99381 55.464844 61.994141 L 56.441406 61.996094 C 56.9431 61.996094 57.421394 61.806855 57.740234 61.445312 C 58.058081 61.086317 58.201172 60.618113 58.201172 60.146484 C 58.201172 59.674855 58.058105 59.206146 57.740234 58.845703 C 57.420899 58.485025 56.94266 58.297353 56.443359 58.296875 L 56.441406 58.296875 L 55.652344 58.294922 A 0.50005 0.50005 0 0 0 55.650391 58.294922 C 55.014633 58.294922 54.573763 58.095261 54.431641 57.951172 C 54.288378 57.806427 54.162109 57.460002 54.162109 56.816406 L 54.158203 50.320312 L 56.800781 50.320312 C 57.56874 50.320313 58.200761 49.686256 58.199219 48.917969 A 0.50005 0.50005 0 0 0 58.199219 48.916016 L 58.197266 48.466797 C 58.194166 47.703316 57.563188 47.074219 56.798828 47.074219 L 54.162109 47.076172 L 54.167969 42.285156 C 54.167969 41.824122 53.869757 41.411567 53.472656 41.160156 C 53.087702 40.916435 52.644172 40.789062 52.183594 40.789062 z M 52.183594 41.789062 C 52.469016 41.789062 52.708408 41.859582 52.939453 42.005859 C 53.158353 42.144448 53.167969 42.20019 53.167969 42.285156 L 53.162109 47.576172 A 0.50005 0.50005 0 0 0 53.662109 48.076172 L 56.798828 48.074219 C 57.024468 48.074219 57.196357 48.246184 57.197266 48.470703 L 57.199219 48.921875 C 57.198825 49.148763 57.026268 49.320312 56.800781 49.320312 L 53.658203 49.320312 A 0.50005 0.50005 0 0 0 53.158203 49.822266 L 53.162109 56.816406 C 53.162109 57.576071 53.285004 58.211139 53.720703 58.652344 C 54.156184 59.093852 54.831197 59.29456 55.648438 59.294922 L 56.439453 59.296875 A 0.50005 0.50005 0 0 0 56.441406 59.296875 C 56.724535 59.296875 56.862317 59.363886 56.990234 59.507812 C 57.120363 59.655369 57.201172 59.876113 57.201172 60.146484 C 57.201172 60.416855 57.122341 60.6362 56.992188 60.783203 A 0.50005 0.50005 0 0 0 56.990234 60.783203 C 56.861474 60.929208 56.723901 60.995679 56.443359 60.996094 L 55.466797 60.994141 C 53.910751 60.994141 52.812319 60.636208 52.105469 59.990234 C 51.398619 59.344261 51.017578 58.372735 51.017578 56.943359 L 51.017578 42.285156 C 51.017578 42.194086 51.028918 42.138492 51.238281 42.001953 A 0.50005 0.50005 0 0 0 51.240234 42.001953 C 51.36831 41.918143 51.896938 41.789062 52.183594 41.789062 z M 33.902344 43.492188 C 30.894735 43.492187 28.019531 45.781498 28.019531 49.777344 C 28.019531 52.520654 28.619234 55.21697 29.5625 57.117188 C 30.369373 58.742798 31.303704 59.94181 32.210938 60.748047 C 33.11817 61.554284 33.986346 61.992188 34.775391 61.992188 C 35.543209 61.992188 36.11284 61.730129 36.667969 61.513672 C 37.223097 61.297214 37.786965 61.101564 38.703125 61.101562 C 39.619285 61.101562 40.18326 61.297209 40.738281 61.513672 C 41.293302 61.730135 41.862628 61.992188 42.630859 61.992188 C 43.419904 61.992188 44.306774 61.559289 45.240234 60.753906 C 46.173694 59.948524 47.136516 58.746677 47.945312 57.117188 C 48.069983 56.866771 48.17953 56.608185 48.287109 56.341797 A 0.50005 0.50005 0 0 0 48.037109 55.703125 C 46.52772 54.99016 45.177734 53.153375 45.177734 50.953125 C 45.177734 48.874197 46.280336 46.998929 47.626953 46.212891 A 0.50005 0.50005 0 0 0 47.748047 45.449219 C 46.644002 44.204995 45.119711 43.492187 43.503906 43.492188 C 42.37585 43.492187 41.503328 43.869071 40.759766 44.207031 C 40.016204 44.544991 39.406232 44.832031 38.703125 44.832031 C 38.000018 44.832031 37.390046 44.544991 36.646484 44.207031 C 35.902922 43.869071 35.0304 43.492188 33.902344 43.492188 z M 33.902344 44.492188 C 34.811287 44.492187 35.502984 44.785646 36.232422 45.117188 C 36.96186 45.448727 37.733232 45.832031 38.703125 45.832031 C 39.673018 45.832031 40.44439 45.448728 41.173828 45.117188 C 41.903266 44.785646 42.594963 44.492187 43.503906 44.492188 C 44.684268 44.492188 45.768268 45.011795 46.654297 45.851562 C 45.228055 46.966194 44.177734 48.798025 44.177734 50.953125 C 44.177734 53.350551 45.545593 55.262181 47.230469 56.263672 C 47.170969 56.401497 47.111007 56.546982 47.048828 56.671875 C 46.293626 58.193386 45.405431 59.290726 44.587891 59.996094 C 43.770351 60.701461 43.005815 60.992188 42.630859 60.992188 C 42.089091 60.992188 41.687542 60.810568 41.101562 60.582031 C 40.515585 60.353494 39.768965 60.101563 38.703125 60.101562 C 37.637285 60.101562 36.890808 60.353489 36.304688 60.582031 C 35.718565 60.810574 35.316573 60.992188 34.775391 60.992188 C 34.400435 60.992188 33.667767 60.706466 32.875 60.001953 C 32.082233 59.29744 31.216111 58.197263 30.458984 56.671875 C 29.61025 54.962093 29.019531 52.372034 29.019531 49.777344 C 29.019531 46.245189 31.381952 44.492187 33.902344 44.492188 z M 61.539062 46.632812 C 60.988146 46.632812 60.442409 46.796101 59.925781 47.097656 C 59.389399 47.411434 58.998047 47.887725 58.998047 48.455078 C 58.998047 48.711436 59.079277 48.944689 59.201172 49.183594 L 64.125 61.066406 A 0.50005 0.50005 0 0 0 64.128906 61.072266 C 64.269824 61.398435 64.547533 61.654333 64.875 61.796875 C 65.202467 61.939417 65.578666 61.992188 66.007812 61.992188 C 66.43696 61.992188 66.811064 61.939398 67.138672 61.796875 C 67.466279 61.654347 67.746254 61.399224 67.886719 61.072266 A 0.50005 0.50005 0 0 0 67.888672 61.066406 L 72.859375 49.148438 A 0.50005 0.50005 0 0 0 72.861328 49.140625 C 72.953478 48.909075 73.015625 48.689696 73.015625 48.455078 C 73.015625 47.874831 72.587389 47.424178 72.019531 47.107422 C 71.478953 46.805882 70.96876 46.632813 70.472656 46.632812 C 69.85379 46.632812 69.276197 47.002893 69.058594 47.570312 A 0.50005 0.50005 0 0 0 69.058594 47.572266 L 66.007812 55.583984 L 62.955078 47.515625 L 62.953125 47.513672 C 62.849597 47.238442 62.655276 46.992466 62.400391 46.841797 C 62.1447 46.690652 61.848781 46.632813 61.539062 46.632812 z M 61.539062 47.632812 C 61.722344 47.632812 61.830816 47.667775 61.890625 47.703125 C 61.950435 47.738485 61.981805 47.769505 62.017578 47.865234 A 0.50005 0.50005 0 0 0 62.017578 47.867188 L 65.539062 57.167969 A 0.50005 0.50005 0 0 0 66.472656 57.167969 L 69.992188 47.929688 L 69.994141 47.927734 C 70.091641 47.67442 70.145089 47.632814 70.472656 47.632812 C 70.724553 47.632812 71.085828 47.732012 71.53125 47.980469 C 71.949392 48.213712 72.015625 48.369325 72.015625 48.455078 C 72.015625 48.496458 71.995491 48.611035 71.931641 48.771484 L 66.966797 60.675781 C 66.930257 60.760821 66.886127 60.815435 66.740234 60.878906 C 66.594342 60.942376 66.347666 60.992187 66.007812 60.992188 C 65.667959 60.992188 65.421174 60.942368 65.275391 60.878906 C 65.129608 60.815446 65.083957 60.761612 65.046875 60.675781 L 60.109375 48.763672 A 0.50005 0.50005 0 0 0 60.091797 48.728516 C 60.013687 48.57542 59.998047 48.474721 59.998047 48.455078 C 59.998047 48.316431 60.060066 48.17716 60.429688 47.960938 C 60.821059 47.732492 61.181979 47.632812 61.539062 47.632812 z"/></svg>